<svg width="24" xmlns="http://www.w3.org/2000/svg" height="24" id="screenshot-9c58dffa-3bc8-8016-8006-66e0b39d9bd6" viewBox="0 0 24 24" xmlns:xlink="http://www.w3.org/1999/xlink" fill="none" version="1.1"><g id="shape-9c58dffa-3bc8-8016-8006-66e0b39d9bd6" width="24" height="24" rx="0" ry="0" style="fill: rgb(0, 0, 0);"><g id="shape-9c58dffa-3bc8-8016-8006-66e0b39ef1b1" style="display: none;"><g class="fills" id="fills-9c58dffa-3bc8-8016-8006-66e0b39ef1b1"><rect width="24" height="24" x="0" transform="matrix(1.000000, 0.000000, 0.000000, 1.000000, 0.000000, 0.000000)" style="fill: none;" ry="0" fill="none" rx="0" y="0"/></g></g><g id="shape-9c58dffa-3bc8-8016-8006-66e0b39f21d5" rx="0" ry="0" style="fill: rgb(0, 0, 0);"><g id="shape-9c58dffa-3bc8-8016-8006-66e0b39f5333"><g class="fills" id="fills-9c58dffa-3bc8-8016-8006-66e0b39f5333"><path d="M21.25,12C21.25,17.108642578125,17.108642578125,21.25,12,21.25C6.891357421875,21.25,2.75,17.108642578125,2.75,12C2.75,6.891357421875,6.891357421875,2.75,12,2.75C17.108642578125,2.75,21.25,6.891357421875,21.25,12" fill="none" stroke-linejoin="round" stroke-linecap="round" style="fill: none;"/></g><g fill="none" stroke-linejoin="round" stroke-linecap="round" id="strokes-bdff64e1-eb8b-803d-8006-66e0c3d5ac36-9c58dffa-3bc8-8016-8006-66e0b39f5333" class="strokes"><g class="stroke-shape"><path d="M21.25,12C21.25,17.108642578125,17.108642578125,21.25,12,21.25C6.891357421875,21.25,2.75,17.108642578125,2.75,12C2.75,6.891357421875,6.891357421875,2.75,12,2.75C17.108642578125,2.75,21.25,6.891357421875,21.25,12" style="fill: none; stroke-width: 1.5; stroke: rgb(0, 0, 0); stroke-opacity: 1;"/></g></g></g><g id="shape-9c58dffa-3bc8-8016-8006-66e0b39fbf6a"><g class="fills" id="fills-9c58dffa-3bc8-8016-8006-66e0b39fbf6a"><path d="M11.25,6.75L11.25,12.75L15.25,12.75" fill="none" stroke-linejoin="round" stroke-linecap="round" style="fill: none;"/></g><g fill="none" stroke-linejoin="round" stroke-linecap="round" id="strokes-bdff64e1-eb8b-803d-8006-66e0c3da9e78-9c58dffa-3bc8-8016-8006-66e0b39fbf6a" class="strokes"><g class="stroke-shape"><path d="M11.25,6.75L11.25,12.75L15.25,12.75" style="fill: none; stroke-width: 1.5; stroke: rgb(0, 0, 0); stroke-opacity: 1;"/></g></g></g></g></g></svg>